# Blender v2.77 (sub 0) OBJ File: 'sapin.blend'
# www.blender.org
mtllib sapin.mtl
o Cylinder
v -0.004972 -0.122335 -0.314381
v -0.004972 0.721886 -0.314381
v 0.288964 -0.122335 -0.100824
v 0.288964 0.721886 -0.100824
v 0.176691 -0.122335 0.244718
v 0.176691 0.721886 0.244718
v -0.186634 -0.122335 0.244718
v -0.186634 0.721886 0.244718
v -0.298908 -0.122335 -0.100824
v -0.298908 0.721886 -0.100824
vn 0.5878 0.0000 -0.8090
vn 0.9511 0.0000 0.3090
vn -0.0000 0.0000 1.0000
vn 0.0000 1.0000 0.0000
vn -0.9511 0.0000 0.3090
vn -0.5878 0.0000 -0.8090
vn 0.0000 -1.0000 -0.0000
usemtl Material.001
s off
f 1//1 2//1 4//1 3//1
f 3//2 4//2 6//2 5//2
f 5//3 6//3 8//3 7//3
f 4//4 2//4 10//4 8//4 6//4
f 7//5 8//5 10//5 9//5
f 9//6 10//6 2//6 1//6
f 1//7 3//7 5//7 7//7 9//7
o Cone.001
v 0.000000 1.714477 -1.000000
v 0.000000 3.714477 0.000000
v 0.951057 1.714477 -0.309017
v 0.587785 1.714477 0.809017
v -0.587785 1.714477 0.809017
v -0.951056 1.714477 -0.309017
v 0.000000 1.087878 -1.008437
v 0.000000 3.079834 -0.000000
v 0.959081 1.087878 -0.311624
v 0.592744 1.087878 0.815843
v -0.592745 1.087878 0.815843
v -0.959081 1.087878 -0.311624
v -0.746960 0.692816 -0.242702
v -0.461647 0.692816 0.635402
v 0.461647 0.692816 0.635402
v 0.746960 0.692816 -0.242702
v -0.000000 2.244210 -0.000000
v -0.000000 0.692816 -0.785400
vn 0.5449 0.3750 -0.7500
vn 0.8817 0.3750 0.2865
vn -0.0000 0.3750 0.9270
vn -0.8817 0.3750 0.2865
vn -0.5449 0.3750 -0.7500
vn 0.0000 -1.0000 -0.0000
vn 0.5439 0.3790 -0.7487
vn 0.8801 0.3790 0.2860
vn -0.0000 0.3790 0.9254
vn -0.8801 0.3790 0.2860
vn -0.5439 0.3790 -0.7487
usemtl Material.002
s off
f 11//8 12//8 13//8
f 13//9 12//9 14//9
f 14//10 12//10 15//10
f 15//11 12//11 16//11
f 16//12 12//12 11//12
f 11//13 13//13 14//13 15//13 16//13
f 17//14 18//14 19//14
f 19//15 18//15 20//15
f 20//16 18//16 21//16
f 21//17 18//17 22//17
f 22//18 18//18 17//18
f 17//13 19//13 20//13 21//13 22//13
f 23//18 27//18 28//18
f 28//14 27//14 26//14
f 26//15 27//15 25//15
f 25//16 27//16 24//16
f 24//17 27//17 23//17
f 28//13 26//13 25//13 24//13 23//13
o Cone
v 0.000000 2.250225 -1.000000
v 0.000000 4.250225 0.000000
v 0.951057 2.250225 -0.309017
v 0.587785 2.250225 0.809017
v -0.587785 2.250225 0.809017
v -0.951056 2.250225 -0.309017
vt 0.1965 0.4130
vt 0.3928 0.0002
vt 0.0002 0.3197
vt 0.0002 0.9040
vt 0.2371 0.5067
vt 0.2371 0.9998
vt 0.3932 0.8360
vt 0.6510 0.4353
vt 0.6510 0.9117
vt 0.8882 0.9284
vt 0.8882 0.4353
vt 0.6513 0.8326
vt 0.3928 0.5063
vt 0.3932 0.2176
vt 0.5511 0.4349
vt 0.8066 0.3519
vt 0.8066 0.0832
vt 0.5511 0.0002
vn 0.5449 0.3750 -0.7500
vn 0.8817 0.3750 0.2865
vn -0.0000 0.3750 0.9270
vn -0.8817 0.3750 0.2865
vn -0.5449 0.3750 -0.7500
vn 0.0000 -1.0000 -0.0000
usemtl Material.003
s off
f 29/1/19 30/2/19 31/3/19
f 31/4/20 30/5/20 32/6/20
f 32/7/21 30/8/21 33/9/21
f 33/10/22 30/11/22 34/12/22
f 34/13/23 30/2/23 29/1/23
f 29/14/24 31/15/24 32/16/24 33/17/24 34/18/24
